<svg width="23" height="135" viewBox="0 0 23 135" fill="none" xmlns="http://www.w3.org/2000/svg">
<path d="M0.637949 126.569C0.637949 125.323 0.849051 124.288 1.27126 123.463C1.69346 122.639 2.2564 122.026 2.96007 121.624C3.66375 121.222 4.42774 121.021 5.25204 121.021C6.78002 121.021 7.95616 121.604 8.78046 122.77C9.60476 123.936 10.0169 125.524 10.0169 127.535L10.0169 131.576L10.1979 131.576C11.5047 131.576 12.4898 131.234 13.1533 130.55C13.8369 129.867 14.1786 128.952 14.1786 127.806C14.1786 126.821 13.9273 125.966 13.4247 125.243C12.9422 124.539 12.2285 124.097 11.2835 123.916L11.2835 121.322C12.3692 121.423 13.284 121.784 14.0279 122.408C14.7717 123.051 15.3347 123.845 15.7167 124.79C16.1188 125.735 16.3198 126.74 16.3198 127.806C16.3198 129.897 15.7569 131.465 14.631 132.51C13.5252 133.576 12.0475 134.109 10.1979 134.109L0.999837 134.109L0.999837 131.847L3.68385 131.696C2.83944 131.274 2.11566 130.651 1.51251 129.826C0.92947 129.022 0.637949 127.937 0.637949 126.569ZM2.77913 126.962C2.77913 127.927 3.03044 128.751 3.53306 129.434C4.03569 130.138 4.6891 130.671 5.4933 131.033C6.2975 131.395 7.1419 131.576 8.02652 131.576L8.05668 131.576L8.05668 127.746C8.05668 126.258 7.79532 125.202 7.27259 124.579C6.76996 123.976 6.13666 123.674 5.37267 123.674C4.58858 123.674 3.95527 123.956 3.47275 124.519C3.01034 125.102 2.77913 125.916 2.77913 126.962Z" fill="white"/>
<path d="M0.999838 104.335L15.9579 104.335L15.9579 106.627L13.2739 106.778C14.2189 107.261 14.9627 107.954 15.5056 108.859C16.0484 109.764 16.3198 110.789 16.3198 111.935C16.3198 113.704 15.777 115.112 14.6913 116.157C13.6258 117.223 11.9771 117.756 9.7455 117.756L0.999837 117.756L0.999837 115.222L9.47408 115.222C12.5904 115.222 14.1485 113.936 14.1485 111.362C14.1485 110.075 13.676 109 12.7311 108.135C11.8063 107.291 10.4793 106.869 8.7503 106.869L0.999838 106.869L0.999838 104.335Z" fill="white"/>
<path d="M0.637949 93.304C0.637949 91.8966 0.959628 90.63 1.60299 89.5042C2.24635 88.3783 3.15107 87.4836 4.31716 86.8201C5.50335 86.1768 6.89059 85.8551 8.47889 85.8551C10.0672 85.8551 11.4444 86.1868 12.6105 86.8503C13.7966 87.5138 14.7114 88.4084 15.3548 89.5343C15.9981 90.6803 16.3198 91.957 16.3198 93.3643C16.3198 94.7717 15.9981 96.0383 15.3548 97.1641C14.7114 98.29 13.7966 99.1746 12.6105 99.818C11.4444 100.481 10.0672 100.813 8.47888 100.813C6.89059 100.813 5.50335 100.481 4.31716 99.818C3.15107 99.1545 2.24635 98.2498 1.60299 97.1038C0.959628 95.978 0.637949 94.7113 0.637949 93.304ZM2.80928 93.304C2.80928 94.1685 3.02039 94.9727 3.44259 95.7166C3.86479 96.4605 4.4981 97.0636 5.34251 97.526C6.18692 97.9885 7.23238 98.2197 8.47889 98.2197C9.72539 98.2197 10.7709 97.9885 11.6153 97.526C12.4597 97.0837 13.093 96.4906 13.5152 95.7467C13.9374 95.0029 14.1485 94.2087 14.1485 93.3643C14.1485 92.4998 13.9374 91.6956 13.5152 90.9517C13.093 90.2078 12.4597 89.6047 11.6153 89.1423C10.7709 88.6799 9.72539 88.4486 8.47889 88.4486C7.23238 88.4486 6.18692 88.6799 5.34251 89.1423C4.4981 89.6047 3.86479 90.1978 3.44259 90.9216C3.02039 91.6654 2.80928 92.4596 2.80928 93.304Z" fill="white"/>
<path d="M1.00001 79.8031L22.7134 79.8031L22.7134 82.3363L1.00001 82.3363L1.00001 79.8031Z" fill="white"/>
<path d="M0.637949 69.3584C0.637949 67.931 0.959628 66.6643 1.60299 65.5586C2.26645 64.4528 3.18123 63.5782 4.34731 62.9349C5.5134 62.3116 6.89059 62 8.47889 62C10.0471 62 11.4142 62.3116 12.5803 62.9349C13.7665 63.5581 14.6813 64.4227 15.3246 65.5284C15.9881 66.6543 16.3198 67.9511 16.3198 69.4187C16.3198 70.8663 15.9881 72.1128 15.3246 73.1583C14.6813 74.2238 13.8268 75.0381 12.7612 75.601C11.6957 76.1639 10.5497 76.4454 9.32329 76.4454C9.10214 76.4454 8.88098 76.4354 8.65983 76.4153C8.43867 76.4153 8.18736 76.4153 7.90589 76.4153L7.9059 64.5031C6.75991 64.5634 5.80493 64.8247 5.04094 65.2872C4.29705 65.7697 3.73411 66.3628 3.35212 67.0664C2.97012 67.7902 2.77913 68.5542 2.77913 69.3584C2.77913 70.4039 3.02039 71.2784 3.50291 71.9821C3.98543 72.6858 4.63884 73.1985 5.46314 73.5201L5.46314 76.0232C4.0759 75.6211 2.91986 74.8471 1.99503 73.7011C1.09031 72.5752 0.637949 71.1277 0.637949 69.3584ZM14.1786 69.3584C14.1786 68.1521 13.8067 67.0765 13.0628 66.1316C12.339 65.2067 11.2735 64.674 9.86613 64.5332L9.86613 73.9423C11.2132 73.882 12.2687 73.4196 13.0327 72.5551C13.7966 71.6906 14.1786 70.625 14.1786 69.3584Z" fill="white"/>
<path d="M0.637949 52.3101C0.637949 50.8827 0.959628 49.5959 1.60299 48.45C2.26645 47.3241 3.18123 46.4294 4.34731 45.7659C5.53351 45.1226 6.9107 44.8009 8.47889 44.8009C10.0471 44.8009 11.4142 45.1226 12.5803 45.7659C13.7665 46.4294 14.6813 47.3241 15.3246 48.45C15.9881 49.5959 16.3198 50.8827 16.3198 52.3101C16.3198 54.0793 15.8574 55.5671 14.9326 56.7734C14.0078 57.9998 12.7713 58.7739 11.2232 59.0955L11.2232 56.502C12.148 56.3009 12.8618 55.8084 13.3644 55.0243C13.8871 54.2402 14.1485 53.3254 14.1485 52.2799C14.1485 51.4355 13.9374 50.6414 13.5152 49.8975C13.093 49.1536 12.4597 48.5505 11.6153 48.0881C10.7709 47.6256 9.72539 47.3944 8.47889 47.3944C7.23238 47.3944 6.18692 47.6256 5.34251 48.0881C4.4981 48.5505 3.85474 49.1536 3.41243 49.8975C2.99023 50.6414 2.77913 51.4355 2.77913 52.2799C2.77913 53.3254 3.03044 54.2402 3.53306 55.0243C4.05579 55.8084 4.78962 56.3009 5.73456 56.502L5.73456 59.0955C4.22668 58.794 3.00028 58.03 2.05535 56.8036C1.11042 55.5772 0.637949 54.0793 0.637949 52.3101Z" fill="white"/>
<path d="M0.999838 35.0381L15.9579 35.0381L15.9579 37.3301L13.093 37.5412C14.0781 38.0036 14.8622 38.7072 15.4453 39.6522C16.0283 40.5971 16.3198 41.7632 16.3198 43.1504L13.666 43.1504L13.666 42.4568C13.666 41.5722 13.5051 40.7579 13.1834 40.0141C12.8819 39.2702 12.3591 38.6771 11.6153 38.2348C10.8714 37.7925 9.84603 37.5713 8.5392 37.5713L0.999838 37.5713L0.999838 35.0381Z" fill="white"/>
<path d="M0.637949 23.6984C0.637949 22.4519 0.849051 21.4165 1.27126 20.5922C1.69346 19.7679 2.2564 19.1547 2.96007 18.7526C3.66375 18.3505 4.42774 18.1494 5.25204 18.1494C6.78002 18.1494 7.95616 18.7325 8.78046 19.8985C9.60476 21.0646 10.0169 22.6529 10.0169 24.6634L10.0169 28.7045L10.1979 28.7045C11.5047 28.7045 12.4898 28.3627 13.1533 27.6792C13.8369 26.9956 14.1786 26.0808 14.1786 24.9348C14.1786 23.9497 13.9273 23.0952 13.4247 22.3715C12.9422 21.6678 12.2285 21.2255 11.2835 21.0445L11.2835 18.451C12.3692 18.5515 13.284 18.9134 14.0279 19.5367C14.7717 20.18 15.3347 20.9742 15.7167 21.9191C16.1188 22.864 16.3198 23.8693 16.3198 24.9348C16.3198 27.0258 15.7569 28.5939 14.631 29.6394C13.5252 30.705 12.0475 31.2377 10.1979 31.2377L0.999837 31.2377L0.999837 28.9759L3.68385 28.8252C2.83944 28.4029 2.11566 27.7797 1.51251 26.9554C0.92947 26.1512 0.637949 25.0655 0.637949 23.6984ZM2.77913 24.0904C2.77913 25.0555 3.03044 25.8798 3.53306 26.5633C4.03569 27.267 4.6891 27.7998 5.4933 28.1617C6.2975 28.5236 7.1419 28.7045 8.02652 28.7045L8.05668 28.7045L8.05668 24.8745C8.05668 23.3868 7.79532 22.3312 7.27259 21.708C6.76996 21.1048 6.13666 20.8033 5.37267 20.8033C4.58858 20.8033 3.95527 21.0847 3.47275 21.6477C3.01034 22.2307 2.77913 23.045 2.77913 24.0904Z" fill="white"/>
<path d="M1.00013 0.731689L22.1104 0.731689L22.1104 8.15042C22.1104 9.63819 21.8691 10.8646 21.3866 11.8296C20.9242 12.8148 20.2808 13.5486 19.4565 14.0311C18.6523 14.5136 17.7476 14.7549 16.7423 14.7549C15.3752 14.7549 14.2996 14.383 13.5155 13.6391C12.7314 12.9153 12.1885 12.0407 11.887 11.0154C11.7462 11.7995 11.4346 12.5132 10.9521 13.1566C10.4696 13.7999 9.86642 14.3025 9.14264 14.6644C8.41887 15.0464 7.62472 15.2374 6.76021 15.2374C5.69464 15.2374 4.71955 14.9761 3.83493 14.4533C2.97042 13.9306 2.2768 13.1566 1.75407 12.1312C1.25145 11.1059 1.00013 9.85934 1.00013 8.39168L1.00013 0.731689ZM12.8822 3.26492L12.8822 7.96948C12.8822 9.31651 13.1938 10.3519 13.8171 11.0757C14.4604 11.7995 15.345 12.1614 16.4709 12.1614C17.5365 12.1614 18.3909 11.7995 19.0343 11.0757C19.6776 10.372 19.9993 9.30646 19.9993 7.87901L19.9993 3.26492L12.8822 3.26492ZM3.11115 3.26491L3.11115 8.12026C3.11115 9.56782 3.44289 10.6836 4.10635 11.4677C4.78992 12.2518 5.73485 12.6439 6.94115 12.6439C8.12735 12.6439 9.07228 12.2317 9.77595 11.4074C10.4997 10.5831 10.8616 9.4673 10.8616 8.05995L10.8616 3.26492L3.11115 3.26491Z" fill="white"/>
</svg>
