<svg width="54" height="54" viewBox="0 0 54 54" fill="none" xmlns="http://www.w3.org/2000/svg">
<circle cx="27" cy="27" r="26" fill="#16181D" stroke="#7E8BAA" stroke-width="2"/>
<path d="M24.573 39.4V38.26H26.649V32.5L24.669 32.86V31.828L27.141 31H27.921V38.26H30.153V39.4H24.573Z" fill="#8CAE70"/>
<path d="M35.486 23.4V15H36.758V18.84L39.734 15H41.306L38.018 19.164V19.236L41.378 23.4H39.77L36.758 19.632V23.4H35.486Z" fill="#8CAE70"/>
<path d="M28.3386 23.4V15H33.7026V16.14H29.6106V18.588H33.3426V19.716H29.6106V22.26H33.7026V23.4H28.3386Z" fill="#8CAE70"/>
<path d="M21.1433 23.4V15H26.5073V16.14H22.4153V18.588H26.1473V19.716H22.4153V22.26H26.5073V23.4H21.1433Z" fill="#8CAE70"/>
<path d="M14.152 23.4L13 15H14.236L14.932 21.108L15.964 15H17.212L18.244 21.108L18.94 15H20.176L19.024 23.4H17.548L16.588 17.46L15.628 23.4H14.152Z" fill="#8CAE70"/>
</svg>
