<svg width="353" height="353" viewBox="0 0 353 353" fill="none" xmlns="http://www.w3.org/2000/svg">
<path d="M293.737 140.054L307.822 136.279L310.157 144.992L308.769 145.364L306.887 138.342L301.977 139.657L303.697 146.076L302.329 146.443L300.609 140.024L295.578 141.372L297.46 148.394L296.072 148.766L293.737 140.054Z" fill="white"/>
<path d="M296.874 152.438L302.536 155.172L307.081 150.828L307.376 152.7L303.609 156.226L308.282 158.441L308.574 160.293L302.913 157.559L298.368 161.903L298.076 160.051L301.839 156.505L297.17 154.31L296.874 152.438Z" fill="white"/>
<path d="M294.111 164.9L309.007 164.137L309.088 165.718L307.391 165.972C307.907 166.279 308.382 166.728 308.816 167.318C309.25 167.921 309.491 168.701 309.54 169.658C309.593 170.685 309.403 171.591 308.97 172.378C308.538 173.165 307.923 173.788 307.126 174.246C306.33 174.718 305.412 174.98 304.371 175.033C303.331 175.087 302.391 174.919 301.551 174.531C300.725 174.156 300.056 173.593 299.545 172.84C299.048 172.101 298.774 171.218 298.721 170.191C298.678 169.345 298.812 168.581 299.125 167.897C299.438 167.228 299.898 166.703 300.505 166.325L294.201 166.647L294.111 164.9ZM300.23 169.926C300.266 170.62 300.456 171.222 300.802 171.733C301.162 172.243 301.641 172.635 302.239 172.911C302.838 173.186 303.525 173.304 304.302 173.264C305.078 173.224 305.75 173.037 306.317 172.702C306.884 172.367 307.313 171.928 307.605 171.384C307.911 170.84 308.047 170.222 308.011 169.528C307.975 168.835 307.778 168.233 307.418 167.723C307.072 167.212 306.6 166.819 306.002 166.544C305.404 166.269 304.716 166.151 303.939 166.191C303.163 166.23 302.491 166.418 301.924 166.753C301.357 167.088 300.921 167.527 300.615 168.071C300.323 168.615 300.195 169.233 300.23 169.926Z" fill="white"/>
<path d="M299.008 181.826L313.985 182.638L313.89 184.385L298.913 183.573L299.008 181.826Z" fill="white"/>
<path d="M297.325 195.774C297.48 194.814 297.838 193.986 298.4 193.288C298.963 192.591 299.678 192.08 300.546 191.756C301.426 191.447 302.407 191.38 303.49 191.554C304.573 191.728 305.476 192.105 306.199 192.686C306.935 193.268 307.461 193.979 307.776 194.817C308.089 195.67 308.168 196.576 308.014 197.535C307.859 198.495 307.501 199.324 306.939 200.021C306.377 200.718 305.656 201.221 304.776 201.53C303.908 201.854 302.932 201.93 301.849 201.755C300.766 201.581 299.856 201.203 299.12 200.62C298.398 200.04 297.88 199.323 297.567 198.471C297.252 197.633 297.171 196.734 297.325 195.774ZM298.806 196.012C298.711 196.602 298.767 197.173 298.974 197.727C299.18 198.281 299.546 198.761 300.071 199.169C300.596 199.577 301.284 199.85 302.134 199.987C302.984 200.123 303.722 200.08 304.349 199.858C304.973 199.649 305.47 199.313 305.84 198.852C306.209 198.391 306.44 197.873 306.533 197.297C306.628 196.708 306.572 196.136 306.366 195.582C306.159 195.029 305.794 194.548 305.269 194.14C304.743 193.732 304.056 193.459 303.206 193.323C302.356 193.186 301.617 193.229 300.991 193.452C300.364 193.674 299.867 194.009 299.5 194.457C299.13 194.918 298.899 195.436 298.806 196.012Z" fill="white"/>
<path d="M295.489 206.114L305.461 208.819L305.047 210.347L303.098 209.969C303.672 210.456 304.067 211.067 304.285 211.802C304.503 212.537 304.486 213.368 304.236 214.292L302.466 213.813L302.592 213.35C302.752 212.76 302.792 212.189 302.712 211.634C302.645 211.084 302.404 210.594 301.988 210.165C301.572 209.735 300.928 209.402 300.057 209.166L295.031 207.803L295.489 206.114Z" fill="white"/>
<path d="M290.928 219.777C291.239 218.974 291.634 218.36 292.112 217.935C292.59 217.51 293.105 217.256 293.659 217.172C294.213 217.089 294.755 217.151 295.286 217.357C296.27 217.739 296.881 218.408 297.121 219.365C297.36 220.322 297.229 221.448 296.726 222.742L295.717 225.345L295.833 225.39C296.675 225.716 297.395 225.743 297.993 225.468C298.604 225.199 299.052 224.695 299.339 223.957C299.585 223.323 299.637 222.709 299.494 222.118C299.359 221.544 299.01 221.081 298.446 220.728L299.094 219.058C299.769 219.394 300.267 219.856 300.591 220.443C300.909 221.043 301.073 221.695 301.083 222.399C301.106 223.108 300.984 223.806 300.718 224.492C300.195 225.839 299.441 226.708 298.455 227.1C297.476 227.51 296.391 227.483 295.2 227.021L289.277 224.723L289.842 223.266L291.608 223.84C291.17 223.357 290.859 222.775 290.677 222.093C290.503 221.43 290.586 220.658 290.928 219.777ZM292.209 220.565C291.967 221.186 291.923 221.78 292.076 222.346C292.224 222.924 292.512 223.431 292.939 223.865C293.367 224.299 293.865 224.626 294.435 224.847L294.454 224.855L295.411 222.388C295.783 221.43 295.879 220.685 295.698 220.153C295.525 219.639 295.192 219.287 294.7 219.096C294.195 218.9 293.717 218.923 293.266 219.165C292.822 219.425 292.47 219.891 292.209 220.565Z" fill="white"/>
<path d="M284.907 233.727C285.34 232.887 285.883 232.332 286.539 232.06C287.194 231.788 288.053 231.926 289.115 232.472L294.171 235.076L294.991 233.483L296.306 234.16L295.486 235.753L297.585 237.091L296.889 238.443L294.685 237.308L293.293 240.012L291.978 239.335L293.37 236.631L288.314 234.028C287.733 233.729 287.278 233.643 286.947 233.77C286.629 233.903 286.317 234.265 286.012 234.858L285.516 235.821L284.183 235.135L284.907 233.727Z" fill="white"/>
<path d="M289.591 250.593C289.781 250.303 290.034 250.12 290.349 250.044C290.669 249.988 290.973 250.055 291.264 250.246C291.542 250.429 291.714 250.674 291.777 250.982C291.834 251.301 291.767 251.606 291.576 251.896C291.393 252.175 291.144 252.352 290.829 252.427C290.513 252.503 290.216 252.449 289.938 252.266C289.648 252.075 289.469 251.817 289.401 251.49C289.344 251.171 289.408 250.872 289.591 250.593ZM279.517 242.935L288.155 248.604L287.195 250.067L278.556 244.398L279.517 242.935Z" fill="white"/>
<path d="M271.155 253.991C271.771 253.239 272.497 252.702 273.334 252.382C274.17 252.062 275.045 251.98 275.959 252.135C276.874 252.311 277.756 252.746 278.605 253.441C279.454 254.136 280.045 254.916 280.378 255.781C280.722 256.654 280.819 257.533 280.67 258.416C280.512 259.31 280.126 260.133 279.51 260.886C278.894 261.638 278.168 262.174 277.331 262.494C276.495 262.814 275.619 262.887 274.703 262.712C273.79 262.556 272.908 262.13 272.059 261.435C271.211 260.74 270.614 259.956 270.271 259.082C269.938 258.217 269.85 257.338 270.008 256.444C270.157 255.561 270.539 254.743 271.155 253.991ZM272.315 254.941C271.937 255.403 271.698 255.925 271.598 256.507C271.498 257.09 271.573 257.689 271.822 258.306C272.071 258.923 272.528 259.504 273.194 260.049C273.861 260.595 274.521 260.929 275.174 261.051C275.819 261.184 276.417 261.144 276.968 260.932C277.519 260.719 277.98 260.387 278.349 259.935C278.728 259.473 278.967 258.951 279.067 258.369C279.167 257.786 279.092 257.187 278.843 256.57C278.594 255.954 278.137 255.372 277.47 254.827C276.804 254.282 276.144 253.948 275.491 253.825C274.837 253.703 274.239 253.743 273.696 253.945C273.145 254.158 272.685 254.49 272.315 254.941Z" fill="white"/>
<path d="M265.99 260.405L273.252 267.755L272.126 268.868L270.749 267.622C270.97 268.321 270.991 269.023 270.81 269.729C270.629 270.435 270.256 271.066 269.693 271.623C268.824 272.482 267.869 272.898 266.828 272.872C265.787 272.866 264.725 272.315 263.642 271.218L259.396 266.921L260.64 265.691L264.755 269.855C266.268 271.386 267.656 271.527 268.921 270.278C269.553 269.653 269.852 268.899 269.818 268.015C269.784 267.15 269.347 266.293 268.508 265.444L264.745 261.635L265.99 260.405Z" fill="white"/>
<path d="M245.827 284.741C246.12 284.554 246.425 284.491 246.744 284.551C247.058 284.63 247.305 284.81 247.485 285.091C247.672 285.383 247.731 285.683 247.664 285.99C247.585 286.304 247.399 286.555 247.106 286.742C246.825 286.922 246.531 286.978 246.224 286.91C245.906 286.85 245.653 286.674 245.466 286.381C245.287 286.1 245.233 285.797 245.305 285.471C245.372 285.164 245.546 284.921 245.827 284.741Z" fill="#8CAE70"/>
<path d="M220.316 291.042L225.426 304.699L223.788 305.313L218.677 291.655L220.316 291.042Z" fill="#8CAE70"/>
<path d="M211.581 294.116L214.165 304.121L212.632 304.517L212.067 302.748C211.908 303.463 211.572 304.08 211.061 304.6C210.55 305.119 209.911 305.478 209.144 305.676C207.961 305.981 206.926 305.861 206.039 305.316C205.143 304.787 204.501 303.777 204.116 302.284L202.605 296.435L204.299 295.997L205.763 301.665C206.302 303.749 207.431 304.569 209.152 304.124C210.013 303.902 210.651 303.4 211.066 302.619C211.471 301.855 211.524 300.894 211.225 299.738L209.886 294.554L211.581 294.116Z" fill="#8CAE70"/>
<path d="M194.086 297.655C195.309 297.474 196.371 297.632 197.273 298.13C198.176 298.627 198.774 299.395 199.069 300.432L197.297 300.696C197.107 300.176 196.756 299.751 196.244 299.42C195.719 299.105 195.066 299.005 194.283 299.121C193.555 299.23 193.041 299.46 192.743 299.813C192.446 300.18 192.33 300.577 192.393 301.003C192.485 301.621 192.773 301.999 193.257 302.138C193.727 302.279 194.379 302.371 195.214 302.416C195.78 302.444 196.353 302.52 196.933 302.645C197.513 302.769 198.016 302.989 198.442 303.305C198.87 303.635 199.13 304.109 199.222 304.727C199.355 305.62 199.133 306.397 198.557 307.058C197.97 307.735 197.106 308.158 195.966 308.327C194.881 308.489 193.954 308.345 193.185 307.898C192.405 307.466 191.886 306.757 191.627 305.771L193.337 305.517C193.483 306.029 193.77 306.4 194.198 306.631C194.614 306.879 195.137 306.955 195.769 306.861C196.388 306.77 196.849 306.568 197.154 306.256C197.445 305.946 197.558 305.578 197.495 305.152C197.434 304.74 197.173 304.449 196.712 304.278C196.238 304.11 195.618 303.999 194.852 303.944C194.199 303.9 193.576 303.817 192.982 303.695C192.377 303.588 191.866 303.362 191.45 303.017C191.022 302.688 190.753 302.152 190.642 301.41C190.492 300.492 190.729 299.677 191.353 298.967C191.966 298.272 192.877 297.835 194.086 297.655Z" fill="#8CAE70"/>
<path d="M180.143 299.153C181.087 299.113 181.839 299.311 182.399 299.746C182.959 300.181 183.265 300.995 183.315 302.189L183.555 307.871L185.345 307.795L185.407 309.273L183.617 309.349L183.492 311.835L181.973 311.899L181.869 309.422L178.83 309.55L178.768 308.073L181.806 307.944L181.567 302.262C181.539 301.61 181.389 301.172 181.115 300.947C180.842 300.736 180.373 300.645 179.707 300.673L178.624 300.718L178.561 299.22L180.143 299.153Z" fill="#8CAE70"/>
<path d="M173.578 300.63L172.925 310.942L171.345 310.842L171.325 308.857C170.963 309.516 170.444 310.026 169.767 310.387C169.09 310.748 168.273 310.898 167.317 310.837L167.433 309.008L167.911 309.038C168.521 309.077 169.089 309.001 169.616 308.812C170.142 308.637 170.573 308.302 170.911 307.808C171.248 307.315 171.445 306.618 171.502 305.717L171.831 300.519L173.578 300.63Z" fill="#8CAE70"/>
<path d="M160.272 299.474C161.476 299.679 162.373 300.205 162.962 301.051C163.548 301.912 163.712 303.102 163.453 304.622L162.44 310.577L160.715 310.284L161.696 304.513C162.058 302.391 161.369 301.182 159.63 300.886C158.74 300.735 157.954 300.925 157.272 301.457C156.574 302 156.124 302.86 155.924 304.038L155.026 309.316L153.301 309.022L155.034 298.836L156.595 299.102L156.407 300.95C156.831 300.361 157.39 299.934 158.083 299.672C158.762 299.407 159.491 299.341 160.272 299.474Z" fill="#8CAE70"/>
<path d="M149.945 296.959L147.151 306.907L145.627 306.479L145.912 305.001C145.441 305.445 144.897 305.74 144.279 305.884C143.662 306.028 143.019 306.006 142.35 305.818C141.561 305.596 140.931 305.246 140.46 304.768C139.975 304.285 139.671 303.673 139.547 302.932C139.031 303.436 138.423 303.777 137.723 303.956C137.011 304.131 136.3 304.118 135.591 303.919C134.401 303.585 133.554 302.957 133.048 302.036C132.538 301.129 132.492 299.933 132.909 298.449L134.542 292.633L136.207 293.1L134.624 298.736C134.335 299.765 134.324 300.599 134.592 301.237C134.86 301.875 135.382 302.303 136.157 302.52C136.96 302.746 137.716 302.619 138.428 302.141C139.122 301.673 139.631 300.863 139.954 299.714L141.401 294.559L143.086 295.032L141.503 300.668C141.214 301.698 141.203 302.531 141.471 303.169C141.739 303.807 142.261 304.235 143.037 304.453C143.825 304.674 144.575 304.546 145.287 304.068C145.981 303.599 146.49 302.79 146.813 301.64L148.26 296.486L149.945 296.959Z" fill="#8CAE70"/>
<path d="M124.969 289.438C125.885 289.803 126.616 290.334 127.161 291.029C127.701 291.738 128.028 292.548 128.143 293.461C128.244 294.369 128.092 295.332 127.686 296.351C127.285 297.358 126.736 298.155 126.038 298.744C125.334 299.346 124.546 299.712 123.672 299.842C122.78 299.98 121.863 299.861 120.921 299.486C119.992 299.116 119.277 298.584 118.776 297.891C118.256 297.206 117.952 296.449 117.863 295.622C117.775 294.794 117.887 293.987 118.201 293.2C118.257 293.058 118.32 292.918 118.39 292.782C118.446 292.64 118.51 292.478 118.582 292.298L126.226 295.344C126.481 294.593 126.557 293.913 126.456 293.305C126.336 292.704 126.1 292.191 125.746 291.766C125.379 291.336 124.938 291.018 124.422 290.812C123.751 290.545 123.128 290.476 122.553 290.606C121.978 290.736 121.482 291.024 121.065 291.471L119.458 290.831C120.071 290.043 120.863 289.499 121.835 289.199C122.789 288.906 123.834 288.986 124.969 289.438ZM121.507 298.127C122.281 298.436 123.066 298.472 123.863 298.236C124.641 298.008 125.256 297.461 125.706 296.594L119.668 294.188C119.362 295.068 119.389 295.863 119.749 296.575C120.108 297.286 120.694 297.804 121.507 298.127Z" fill="#8CAE70"/>
<path d="M117.153 284.791L112.34 293.934L110.939 293.197L111.711 291.508C111.112 291.93 110.448 292.162 109.721 292.203C108.993 292.243 108.279 292.079 107.579 291.711C106.497 291.141 105.811 290.357 105.522 289.357C105.213 288.363 105.418 287.184 106.136 285.819L108.949 280.473L110.498 281.288L107.772 286.469C106.769 288.373 107.054 289.74 108.627 290.568C109.414 290.982 110.223 291.039 111.056 290.739C111.87 290.446 112.555 289.771 113.111 288.714L115.604 283.976L117.153 284.791Z" fill="#8CAE70"/>
<path d="M99.7467 274.429C100.531 274.954 101.022 275.558 101.217 276.24C101.412 276.922 101.177 277.759 100.513 278.752L97.35 283.478L98.8388 284.475L98.0162 285.704L96.5273 284.707L94.9581 286.64L93.6943 285.794L95.0731 283.734L92.5455 282.043L93.3682 280.813L95.8958 282.505L99.0589 277.779C99.4219 277.236 99.5595 276.794 99.4715 276.451C99.3758 276.119 99.0509 275.768 98.4969 275.397L97.5967 274.795L98.4309 273.548L99.7467 274.429Z" fill="#8CAE70"/>
<path d="M91.9296 269.066C92.5908 269.618 93.0467 270.188 93.2972 270.776C93.5477 271.365 93.6239 271.935 93.5259 272.486C93.4279 273.037 93.1966 273.532 92.8319 273.969C92.1559 274.779 91.3262 275.145 90.3429 275.067C89.3597 274.988 88.3347 274.504 87.2682 273.615L85.1244 271.827L85.0444 271.923C84.4662 272.616 84.2117 273.29 84.2808 273.944C84.341 274.609 84.675 275.195 85.283 275.702C85.8056 276.138 86.37 276.383 86.9764 276.436C87.5631 276.492 88.1135 276.309 88.6276 275.888L90.0034 277.035C89.4698 277.567 88.8731 277.892 88.2134 278.011C87.543 278.121 86.8726 278.068 86.2023 277.852C85.5232 277.648 84.9009 277.31 84.3357 276.838C83.2265 275.913 82.6436 274.921 82.5871 273.861C82.5111 272.803 82.8822 271.783 83.7005 270.802L87.7699 265.923L88.9698 266.923L87.8623 268.414C88.4599 268.153 89.1107 268.044 89.8148 268.089C90.4994 268.136 91.2043 268.461 91.9296 269.066ZM90.7743 270.029C90.2624 269.602 89.7139 269.37 89.1289 269.334C88.5332 269.29 87.9615 269.401 87.4137 269.667C86.866 269.934 86.3964 270.302 86.005 270.771L85.9917 270.787L88.0234 272.481C88.8127 273.14 89.4883 273.468 90.0502 273.466C90.5925 273.467 91.0327 273.264 91.3707 272.859C91.7176 272.443 91.8484 271.982 91.7633 271.477C91.6586 270.974 91.3289 270.491 90.7743 270.029Z" fill="#8CAE70"/>
<path d="M81.7774 258.423C82.4351 259.101 82.788 259.794 82.8363 260.502C82.8846 261.21 82.4801 261.979 81.623 262.811L77.5416 266.772L78.7892 268.057L77.7277 269.087L76.4801 267.802L74.5415 269.363L73.4825 268.272L75.2615 266.546L73.1435 264.363L74.205 263.333L76.323 265.516L80.4044 261.555C80.8729 261.101 81.0999 260.697 81.0856 260.343C81.0613 259.999 80.8171 259.587 80.3528 259.109L79.5985 258.332L80.6749 257.287L81.7774 258.423Z" fill="#8CAE70"/>
<path d="M67.9215 259.004C68.1358 259.277 68.2283 259.575 68.1991 259.898C68.1505 260.218 67.9895 260.486 67.7163 260.7C67.454 260.906 67.1669 260.99 66.8549 260.952C66.5344 260.903 66.267 260.742 66.0528 260.469C65.8471 260.207 65.7588 259.914 65.788 259.591C65.8172 259.268 65.9629 259.004 66.2252 258.798C66.4984 258.584 66.8007 258.497 67.1322 258.537C67.4527 258.586 67.7158 258.741 67.9215 259.004ZM78.3952 251.902L70.2646 258.278L69.1848 256.901L77.3154 250.525L78.3952 251.902Z" fill="#8CAE70"/>
<path d="M71.1074 242.294C71.6236 243.118 71.8998 243.977 71.9361 244.872C71.9725 245.767 71.771 246.623 71.3317 247.439C70.8733 248.25 70.1793 248.947 69.2496 249.53C68.3198 250.112 67.392 250.423 66.4661 250.463C65.5284 250.509 64.6648 250.321 63.8753 249.898C63.0784 249.463 62.4219 248.834 61.9057 248.01C61.3896 247.186 61.1134 246.327 61.077 245.432C61.0407 244.537 61.2517 243.683 61.7101 242.872C62.1494 242.056 62.8339 241.357 63.7636 240.774C64.6933 240.191 65.627 239.877 66.5647 239.83C67.4906 239.791 68.352 239.989 69.1489 240.424C69.9384 240.847 70.5913 241.47 71.1074 242.294ZM69.8364 243.09C69.5193 242.584 69.1008 242.191 68.5809 241.91C68.0609 241.63 67.469 241.509 66.8051 241.548C66.1412 241.587 65.4445 241.835 64.7148 242.292C63.9851 242.749 63.458 243.268 63.1333 243.848C62.8012 244.417 62.648 244.997 62.6737 245.587C62.6994 246.177 62.8671 246.719 63.1768 247.214C63.4938 247.72 63.9123 248.113 64.4323 248.394C64.9523 248.674 65.5442 248.795 66.2081 248.756C66.8719 248.717 67.5687 248.469 68.2984 248.012C69.028 247.555 69.5552 247.036 69.8799 246.455C70.2046 245.875 70.3578 245.296 70.3395 244.717C70.3138 244.127 70.1461 243.585 69.8364 243.09Z" fill="#8CAE70"/>
<path d="M66.7304 234.21L57.4463 238.745L56.7515 237.322L58.3716 236.415C57.6388 236.402 56.9668 236.197 56.3556 235.8C55.7444 235.403 55.2651 234.849 54.9176 234.137C54.3812 233.039 54.2914 232.001 54.6483 231.023C54.9866 230.039 55.8483 229.208 57.2335 228.532L62.6617 225.88L63.4297 227.452L58.17 230.022C56.2358 230.966 55.6588 232.237 56.439 233.835C56.8291 234.633 57.4485 235.158 58.2971 235.408C59.1271 235.652 60.0787 235.511 61.1519 234.987L65.9624 232.637L66.7304 234.21Z" fill="#8CAE70"/>
<path d="M51.3145 207.655C51.3983 207.992 51.3608 208.302 51.2022 208.584C51.0267 208.857 50.7772 209.034 50.4538 209.114C50.1168 209.198 49.8137 209.159 49.5445 208.997C49.2719 208.821 49.0937 208.565 49.0099 208.228C48.9294 207.905 48.9702 207.608 49.1322 207.339C49.2909 207.056 49.5387 206.873 49.8756 206.789C50.1991 206.709 50.5038 206.755 50.7899 206.927C51.0592 207.089 51.234 207.331 51.3145 207.655Z" fill="white"/>
<path d="M53.6084 185.046L39.0342 185.528L38.8784 180.823C38.8407 179.685 38.9973 178.749 39.3481 178.015C39.699 177.28 40.1949 176.729 40.8357 176.36C41.4766 175.992 42.1926 175.794 42.9838 175.768C43.8999 175.738 44.7341 175.96 45.4862 176.436C46.238 176.897 46.7838 177.643 47.1236 178.674L53.285 175.281L53.3533 177.342L47.4341 180.498L47.4383 180.623L47.5334 183.496L53.5505 183.297L53.6084 185.046ZM46.1593 183.542L46.0655 180.71C46.0283 179.586 45.7305 178.776 45.1722 178.28C44.6138 177.785 43.9113 177.551 43.0646 177.579C42.204 177.607 41.5324 177.887 41.0497 178.417C40.5527 178.933 40.3233 179.768 40.3614 180.92L40.4545 183.731L46.1593 183.542Z" fill="white"/>
<path d="M53.9494 167.593C53.8783 168.576 53.5935 169.433 53.0952 170.162C52.5829 170.891 51.9091 171.448 51.0736 171.833C50.2392 172.205 49.2748 172.351 48.1805 172.271C47.1001 172.193 46.1737 171.91 45.4014 171.423C44.6152 170.934 44.0281 170.293 43.6399 169.499C43.2389 168.69 43.075 167.781 43.1482 166.769C43.2203 165.772 43.511 164.93 44.0202 164.243C44.5166 163.54 45.1459 163.022 45.9081 162.687C46.6703 162.353 47.4738 162.216 48.3188 162.277C48.4712 162.288 48.623 162.306 48.7744 162.331C48.9268 162.342 49.0999 162.354 49.2938 162.368L48.7001 170.575C49.4926 170.591 50.1636 170.459 50.713 170.178C51.2496 169.883 51.667 169.502 51.9652 169.036C52.2645 168.557 52.4342 168.04 52.4742 167.486C52.5263 166.766 52.4037 166.151 52.1064 165.642C51.809 165.133 51.3844 164.747 50.8325 164.485L50.9572 162.76C51.893 163.106 52.6509 163.697 53.2309 164.533C53.7981 165.354 54.0376 166.374 53.9494 167.593ZM44.6204 166.918C44.5602 167.749 44.7629 168.508 45.2283 169.196C45.6809 169.87 46.3884 170.29 47.351 170.457L47.82 163.974C46.889 163.949 46.1387 164.215 45.5693 164.772C44.9998 165.33 44.6835 166.045 44.6204 166.918Z" fill="white"/>
<path d="M55.0397 156.195L46.3254 154.631L46.0495 156.169L44.5936 155.908L44.8696 154.37L43.1062 154.054C42.122 153.877 41.4485 153.502 41.0857 152.929C40.7229 152.356 40.6261 151.598 40.7954 150.655L40.9793 149.63L42.4556 149.895L42.3195 150.653C42.2263 151.173 42.2694 151.561 42.4489 151.819C42.6147 152.075 42.9505 152.248 43.4563 152.339L45.1786 152.648L45.6275 150.146L47.0833 150.408L46.6344 152.909L55.3487 154.473L55.0397 156.195Z" fill="white"/>
<path d="M57.9446 143.166L43.5418 138.98L44.0302 137.299L58.433 141.486L57.9446 143.166Z" fill="white"/>
<path d="M62.7223 130.021C62.3491 130.933 61.8123 131.659 61.1118 132.198C60.3985 132.731 59.5849 133.051 58.6712 133.158C57.7626 133.251 56.8006 133.091 55.7851 132.675C54.7825 132.265 53.9898 131.709 53.4072 131.005C52.8118 130.297 52.4529 129.505 52.3307 128.629C52.2009 127.736 52.3278 126.82 52.7116 125.882C53.09 124.956 53.6281 124.246 54.3256 123.751C55.0156 123.238 55.7748 122.941 56.6032 122.859C57.4317 122.778 58.238 122.898 59.0221 123.218C59.1635 123.276 59.3023 123.341 59.4385 123.411C59.5799 123.469 59.7405 123.535 59.9205 123.608L56.8059 131.225C57.5544 131.486 58.2333 131.568 58.8427 131.472C59.4445 131.358 59.9595 131.126 60.3877 130.776C60.8212 130.413 61.1431 129.975 61.3533 129.461C61.6267 128.792 61.7011 128.17 61.5766 127.594C61.452 127.018 61.1683 126.519 60.7254 126.098L61.3798 124.498C62.1617 125.118 62.6984 125.915 62.9901 126.889C63.2742 127.846 63.1849 128.889 62.7223 130.021ZM54.0648 126.48C53.7494 127.251 53.706 128.036 53.9345 128.835C54.1555 129.616 54.6975 130.235 55.5605 130.693L58.0206 124.677C57.1436 124.363 56.3478 124.383 55.6333 124.736C54.9188 125.089 54.396 125.67 54.0648 126.48Z" fill="white"/>
<path d="M68.2698 118.25C67.8027 119.118 67.1859 119.796 66.4196 120.282C65.6475 120.75 64.7983 120.995 63.8718 121.017C62.9397 121.02 61.9966 120.766 61.0426 120.252C60.0886 119.739 59.3622 119.096 58.8633 118.323C58.3588 117.531 58.0951 116.688 58.0721 115.792C58.0435 114.878 58.2628 113.987 58.7299 113.118C59.3088 112.042 60.0769 111.288 61.0343 110.857C61.9982 110.414 63.0037 110.347 64.0507 110.658L63.202 112.236C62.5736 112.056 61.9783 112.122 61.4159 112.434C60.8413 112.74 60.383 113.211 60.0409 113.847C59.7646 114.361 59.6331 114.913 59.6466 115.504C59.66 116.095 59.8479 116.669 60.2103 117.226C60.5726 117.784 61.133 118.267 61.8913 118.675C62.6496 119.083 63.3612 119.284 64.0262 119.279C64.6912 119.274 65.28 119.118 65.7925 118.81C66.2927 118.495 66.681 118.081 66.9573 117.568C67.2994 116.932 67.4459 116.293 67.3967 115.651C67.3353 115.003 67.0501 114.464 66.541 114.032L67.3897 112.454C68.2083 113.131 68.7044 113.997 68.8779 115.053C69.0514 116.108 68.8487 117.174 68.2698 118.25Z" fill="white"/>
<path d="M75.4938 106.016C74.9615 106.796 74.3534 107.281 73.6695 107.47C72.9857 107.659 72.1505 107.417 71.1639 106.744L66.4665 103.538L65.4566 105.018L64.2349 104.184L65.2448 102.704L63.3263 101.118L64.1835 99.8615L66.2311 101.259L67.9455 98.7466L69.1672 99.5803L67.4528 102.093L72.1503 105.298C72.6895 105.666 73.1309 105.808 73.4746 105.723C73.8069 105.63 74.1609 105.308 74.5367 104.758L75.1473 103.863L76.3862 104.708L75.4938 106.016Z" fill="white"/>
<path d="M72.9211 88.7021C72.6964 88.9668 72.4229 89.1171 72.1007 89.1532C71.7769 89.1697 71.4827 89.0656 71.2181 88.8408C70.964 88.625 70.8243 88.3605 70.7988 88.0473C70.7823 87.7235 70.8864 87.4293 71.1111 87.1647C71.3269 86.9107 71.5959 86.7656 71.9181 86.7295C72.2403 86.6934 72.5284 86.7833 72.7825 86.9991C73.0471 87.2238 73.1929 87.5026 73.22 87.8354C73.2366 88.1592 73.1369 88.4481 72.9211 88.7021ZM81.9763 97.5416L74.1012 90.8525L75.234 89.5188L83.1091 96.2079L81.9763 97.5416Z" fill="white"/>
<path d="M91.6361 87.5996C90.9323 88.2702 90.1456 88.713 89.276 88.9278C88.4064 89.1426 87.5279 89.1165 86.6404 88.8496C85.7534 88.563 84.9315 88.0226 84.1746 87.2284C83.4177 86.4341 82.9273 85.5874 82.7034 84.6881C82.4699 83.7787 82.4813 82.8949 82.7378 82.0367C83.0042 81.1688 83.4893 80.3996 84.1931 79.7289C84.8969 79.0583 85.6835 78.6155 86.5531 78.4007C87.4227 78.1859 88.301 78.2218 89.188 78.5084C90.0755 78.7753 90.8977 79.3059 91.6546 80.1001C92.4115 80.8944 92.9066 81.7462 93.1402 82.6555C93.3641 83.5548 93.3428 84.4384 93.0763 85.3062C92.8199 86.1644 92.3398 86.9289 91.6361 87.5996ZM90.6013 86.5138C91.0336 86.1018 91.3352 85.613 91.506 85.0474C91.6768 84.4817 91.6766 83.8776 91.5054 83.235C91.3342 82.5924 90.9516 81.9594 90.3576 81.3361C89.7636 80.7128 89.1498 80.3001 88.5162 80.0982C87.8926 79.8868 87.2942 79.8527 86.721 79.9961C86.1478 80.1395 85.6501 80.4123 85.2278 80.8147C84.7955 81.2267 84.494 81.7155 84.3232 82.2811C84.1524 82.8468 84.1526 83.4509 84.3238 84.0935C84.4949 84.7361 84.8775 85.3691 85.4715 85.9924C86.0655 86.6157 86.6794 87.0284 87.313 87.2303C87.9466 87.4321 88.545 87.4662 89.1082 87.3324C89.6813 87.189 90.1791 86.9162 90.6013 86.5138Z" fill="white"/>
<path d="M97.5501 81.8687L91.2478 73.6808L92.5024 72.7151L93.7158 74.1208C93.5818 73.4002 93.648 72.7008 93.9145 72.0225C94.181 71.3441 94.628 70.7635 95.2553 70.2807C96.2237 69.5353 97.2228 69.2394 98.2525 69.3932C99.2847 69.5275 100.271 70.2055 101.211 71.4271L104.896 76.2143L103.509 77.2817L99.939 72.643C98.626 70.9372 97.2651 70.6264 95.8565 71.7107C95.1521 72.2528 94.7624 72.9646 94.6873 73.8461C94.6148 74.7081 94.9427 75.6124 95.6712 76.5588L98.9368 80.8013L97.5501 81.8687Z" fill="white"/>
<path d="M120.555 60.1993C120.242 60.3489 119.931 60.3743 119.622 60.2755C119.32 60.1581 119.097 59.949 118.953 59.6483C118.804 59.3349 118.782 59.0301 118.886 58.7339C119.004 58.4316 119.219 58.2057 119.532 58.0562C119.833 57.9126 120.132 57.8932 120.428 57.998C120.737 58.0968 120.966 58.3029 121.115 58.6163C121.259 58.917 121.275 59.2248 121.164 59.5396C121.059 59.8358 120.856 60.0558 120.555 60.1993Z" fill="#8CAE70"/>
<path d="M141.324 58.3592L143.16 42.9269L144.963 42.4957L153.562 55.433L151.758 55.8642L149.59 52.5273L143.552 53.9711L143.107 57.9329L141.324 58.3592ZM143.729 52.4723L148.754 51.2707L144.565 44.8614L143.729 52.4723Z" fill="#8CAE70"/>
<path d="M157.146 60.142L155.222 45.3512L156.792 45.1469L157.177 46.8193C157.443 46.2805 157.853 45.772 158.407 45.2938C158.975 44.8137 159.734 44.5119 160.684 44.3883C161.704 44.2557 162.622 44.3742 163.441 44.7439C164.259 45.1135 164.928 45.6778 165.447 46.4365C165.979 47.1935 166.313 48.0884 166.447 49.1213C166.581 50.1542 166.488 51.1047 166.167 51.9728C165.858 52.8253 165.348 53.5358 164.638 54.1044C163.939 54.6575 163.081 55.0003 162.062 55.1329C161.221 55.2422 160.448 55.1677 159.743 54.9094C159.051 54.6494 158.492 54.2319 158.067 53.6569L158.882 59.9162L157.146 60.142ZM161.679 53.6491C162.368 53.5595 162.953 53.3223 163.435 52.9374C163.916 52.5388 164.27 52.0306 164.497 51.4127C164.725 50.7949 164.789 50.1004 164.689 49.3291C164.588 48.5579 164.349 47.9028 163.971 47.3638C163.592 46.8249 163.121 46.431 162.556 46.1824C161.99 45.92 161.363 45.8335 160.674 45.9231C159.985 46.0127 159.401 46.2569 158.921 46.6555C158.439 47.0403 158.084 47.5417 157.856 48.1595C157.628 48.7773 157.565 49.4719 157.665 50.2431C157.765 51.0143 158.005 51.6694 158.383 52.2084C158.761 52.7474 159.233 53.1481 159.8 53.4105C160.364 53.6591 160.991 53.7387 161.679 53.6491Z" fill="#8CAE70"/>
<path d="M171.651 59.192L171.292 44.2808L172.875 44.2427L173.082 45.9464C173.404 45.4386 173.865 44.976 174.466 44.5587C175.081 44.141 175.868 43.9206 176.826 43.8976C177.853 43.8728 178.754 44.0873 179.529 44.5409C180.304 44.9946 180.91 45.626 181.346 46.4351C181.796 47.2439 182.034 48.1689 182.059 49.2102C182.084 50.2515 181.891 51.1869 181.48 52.0164C181.083 52.8317 180.502 53.4847 179.735 53.9755C178.983 54.452 178.093 54.7027 177.065 54.7274C176.219 54.7478 175.458 54.5925 174.783 54.2614C174.122 53.93 173.61 53.4561 173.248 52.8397L173.4 59.1499L171.651 59.192ZM176.841 53.2116C177.536 53.1949 178.143 53.0206 178.663 52.6885C179.182 52.3426 179.588 51.8744 179.879 51.2839C180.17 50.6935 180.307 50.0095 180.288 49.232C180.269 48.4545 180.1 47.7779 179.781 47.2021C179.461 46.6263 179.034 46.1852 178.499 45.8785C177.963 45.558 177.348 45.4061 176.654 45.4228C175.96 45.4396 175.353 45.6209 174.833 45.9668C174.313 46.2988 173.908 46.7601 173.616 47.3505C173.325 47.941 173.189 48.625 173.207 49.4025C173.226 50.18 173.395 50.8566 173.715 51.4324C174.034 52.0081 174.462 52.4563 174.997 52.7768C175.532 53.0834 176.147 53.2284 176.841 53.2116Z" fill="#8CAE70"/>
<path d="M187.432 54.4147L188.649 39.4653L190.393 39.6074L189.176 54.5567L187.432 54.4147Z" fill="#8CAE70"/>
<path d="M201.287 43.1781C200.945 43.1137 200.679 42.9505 200.489 42.6883C200.314 42.4151 200.259 42.1079 200.323 41.7668C200.385 41.4392 200.546 41.1869 200.805 41.0098C201.079 40.8352 201.386 40.7801 201.727 40.8445C202.055 40.9064 202.314 41.0683 202.505 41.3305C202.695 41.5926 202.76 41.8875 202.698 42.215C202.634 42.5562 202.463 42.8208 202.188 43.009C201.914 43.1836 201.614 43.24 201.287 43.1781ZM198.085 55.4208L200.002 45.2676L201.721 45.5922L199.805 55.7454L198.085 55.4208Z" fill="#8CAE70"/>
<path d="M211.652 58.5059C210.708 58.2222 209.921 57.7536 209.29 57.1002C208.677 56.4375 208.267 55.6545 208.06 54.7512C207.87 53.8386 207.931 52.8636 208.243 51.8261C208.555 50.7887 209.039 49.9482 209.697 49.3047C210.371 48.6518 211.145 48.2245 212.018 48.0227C212.908 47.8116 213.825 47.8479 214.769 48.1316C215.94 48.4833 216.832 49.085 217.446 49.9366C218.074 50.7922 218.34 51.764 218.245 52.8521L216.529 52.3365C216.58 51.6848 216.396 51.1147 215.977 50.6263C215.563 50.1246 215.009 49.7699 214.318 49.5621C213.759 49.3942 213.192 49.376 212.616 49.5075C212.04 49.6389 211.515 49.938 211.041 50.4047C210.567 50.8714 210.207 51.517 209.959 52.3417C209.711 53.1663 209.656 53.9039 209.794 54.5544C209.932 55.2049 210.203 55.7504 210.608 56.1909C211.016 56.6181 211.499 56.9156 212.058 57.0834C212.749 57.2913 213.405 57.3068 214.023 57.1302C214.646 56.9402 215.118 56.5527 215.438 55.9675L217.154 56.4831C216.655 57.4207 215.906 58.0801 214.907 58.4614C213.907 58.8428 212.823 58.8576 211.652 58.5059Z" fill="#8CAE70"/>
<path d="M223.936 63.1948C223.142 62.8617 222.539 62.4506 222.127 61.9614C221.715 61.4722 221.474 60.9497 221.406 60.394C221.338 59.8384 221.414 59.298 221.635 58.7729C222.043 57.7996 222.729 57.2062 223.692 56.9928C224.655 56.7793 225.776 56.9412 227.057 57.4785L229.631 58.5583L229.68 58.4431C230.029 57.6106 230.074 56.8918 229.816 56.2865C229.563 55.6684 229.072 55.2063 228.342 54.9C227.715 54.6368 227.103 54.5685 226.508 54.6953C225.931 54.8146 225.458 55.151 225.09 55.7046L223.438 55.0115C223.793 54.3468 224.268 53.8609 224.863 53.5536C225.472 53.2516 226.128 53.1053 226.832 53.1145C227.542 53.1108 228.236 53.2514 228.914 53.5361C230.246 54.0949 231.095 54.8725 231.46 55.869C231.843 56.8581 231.788 57.9418 231.293 59.12L228.835 64.979L227.395 64.3746L228.016 62.6246C227.521 63.0497 226.931 63.3442 226.245 63.5081C225.576 63.6646 224.807 63.5602 223.936 63.1948ZM224.758 61.9357C225.373 62.1936 225.965 62.2538 226.535 62.1163C227.117 61.9841 227.631 61.7103 228.077 61.2947C228.522 60.8792 228.863 60.3897 229.099 59.8262L229.107 59.807L226.668 58.7835C225.72 58.3859 224.978 58.2704 224.441 58.4368C223.923 58.5958 223.561 58.9186 223.357 59.4052C223.148 59.9047 223.158 60.3833 223.387 60.8411C223.635 61.2915 224.092 61.6563 224.758 61.9357Z" fill="#8CAE70"/>
<path d="M237.834 69.6215C237.006 69.1667 236.465 68.608 236.211 67.9455C235.957 67.283 236.118 66.4284 236.693 65.3817L239.432 60.3978L237.862 59.5349L238.575 58.2387L240.145 59.1016L241.54 57.0395L242.872 57.7719L241.678 59.9444L244.344 61.4093L243.631 62.7055L240.966 61.2406L238.227 66.2245C237.912 66.7966 237.814 67.2496 237.932 67.5836C238.056 67.9054 238.41 68.2268 238.994 68.5479L239.944 69.0696L239.221 70.3841L237.834 69.6215Z" fill="#8CAE70"/>
<path d="M253.552 65.0568C253.267 64.8585 253.091 64.6007 253.024 64.2835C252.977 63.9628 253.052 63.6599 253.25 63.3749C253.441 63.1013 253.691 62.9368 254 62.8813C254.321 62.8337 254.623 62.9091 254.908 63.1073C255.182 63.2977 255.352 63.5515 255.419 63.8687C255.486 64.186 255.424 64.4814 255.234 64.755C255.036 65.04 254.772 65.212 254.444 65.271C254.123 65.3185 253.826 65.2471 253.552 65.0568ZM245.624 74.9198L251.525 66.4381L252.962 67.4375L247.061 75.9192L245.624 74.9198Z" fill="#8CAE70"/>
<path d="M256.449 83.5785C255.714 82.9424 255.198 82.202 254.9 81.3571C254.603 80.5122 254.544 79.6352 254.725 78.7262C254.925 77.8157 255.383 76.9456 256.101 76.1159C256.819 75.2861 257.615 74.7166 258.488 74.4072C259.371 74.0874 260.252 74.0138 261.131 74.1865C262.02 74.3683 262.832 74.7772 263.568 75.4133C264.303 76.0493 264.819 76.7897 265.117 77.6347C265.414 78.4796 265.463 79.3572 265.263 80.2677C265.082 81.1767 264.633 82.0461 263.916 82.8758C263.198 83.7056 262.398 84.2804 261.515 84.6002C260.641 84.9096 259.76 84.9734 258.87 84.7916C257.991 84.6188 257.184 84.2145 256.449 83.5785ZM257.43 82.4441C257.882 82.8348 258.398 83.088 258.977 83.2036C259.556 83.3192 260.158 83.2609 260.781 83.0288C261.404 82.7966 261.997 82.3549 262.561 81.7037C263.124 81.0526 263.476 80.4019 263.616 79.7518C263.766 79.1108 263.743 78.5119 263.545 77.9551C263.347 77.3984 263.028 76.9292 262.586 76.5476C262.135 76.1569 261.619 75.9037 261.04 75.7881C260.46 75.6725 259.859 75.7308 259.236 75.9629C258.613 76.1951 258.02 76.6368 257.456 77.288C256.893 77.9392 256.541 78.5898 256.401 79.2399C256.261 79.89 256.285 80.4889 256.472 81.0366C256.67 81.5933 256.989 82.0625 257.43 82.4441Z" fill="#8CAE70"/>
<path d="M262.722 88.9148L270.266 81.8544L271.348 83.0103L270.065 84.3533C270.77 84.1506 271.472 84.1493 272.173 84.3494C272.874 84.5494 273.495 84.9384 274.036 85.5164C274.871 86.4087 275.261 87.3747 275.207 88.4144C275.173 89.4548 274.593 90.5017 273.467 91.555L269.056 95.6831L267.861 94.4055L272.135 90.4055C273.706 88.9346 273.885 87.5502 272.67 86.2523C272.063 85.6034 271.317 85.2839 270.432 85.2939C269.567 85.3046 268.699 85.718 267.827 86.5341L263.918 90.1924L262.722 88.9148Z" fill="#8CAE70"/>
<path d="M286.502 109.73C286.323 109.432 286.268 109.125 286.337 108.808C286.424 108.496 286.611 108.254 286.897 108.082C287.194 107.903 287.495 107.851 287.8 107.927C288.112 108.015 288.358 108.208 288.537 108.505C288.709 108.791 288.757 109.086 288.681 109.391C288.612 109.708 288.429 109.956 288.132 110.135C287.846 110.307 287.541 110.352 287.217 110.272C286.912 110.196 286.674 110.015 286.502 109.73Z" fill="white"/>
</svg>
