<svg width="54" height="54" viewBox="0 0 54 54" fill="none" xmlns="http://www.w3.org/2000/svg">
<circle cx="27" cy="27" r="26" fill="#16181D" stroke="#7E8BAA" stroke-width="2"/>
<path d="M14.2734 23L13.1214 14.6H14.3574L15.0534 20.708L16.0854 14.6H17.3334L18.3654 20.708L19.0614 14.6H20.2974L19.1454 23H17.6694L16.7094 17.06L15.7494 23H14.2734ZM21.2647 23V14.6H26.6287V15.74H22.5367V18.188H26.2687V19.316H22.5367V21.86H26.6287V23H21.2647ZM28.46 23V14.6H33.824V15.74H29.732V18.188H33.464V19.316H29.732V21.86H33.824V23H28.46ZM35.6073 23V14.6H36.8793V18.44L39.8553 14.6H41.4273L38.1393 18.764V18.836L41.4993 23H39.8913L36.8793 19.232V23H35.6073ZM24.7423 39V37.992C25.5663 37.336 26.2863 36.732 26.9023 36.18C27.5263 35.628 28.0143 35.096 28.3663 34.584C28.7183 34.072 28.8943 33.552 28.8943 33.024C28.8943 32.584 28.7703 32.24 28.5223 31.992C28.2743 31.736 27.9383 31.608 27.5143 31.608C27.0263 31.608 26.6503 31.764 26.3863 32.076C26.1223 32.38 25.9903 32.744 25.9903 33.168H24.7543C24.7623 32.576 24.8863 32.08 25.1263 31.68C25.3663 31.28 25.6903 30.976 26.0983 30.768C26.5143 30.56 26.9863 30.456 27.5143 30.456C28.3703 30.456 29.0303 30.688 29.4943 31.152C29.9583 31.608 30.1903 32.22 30.1903 32.988C30.1903 33.476 30.0823 33.948 29.8663 34.404C29.6583 34.852 29.3823 35.28 29.0383 35.688C28.6943 36.096 28.3103 36.484 27.8863 36.852C27.4703 37.22 27.0503 37.572 26.6263 37.908H30.4183V39H24.7423Z" fill="#8CAE70"/>
</svg>
