<svg width="54" height="54" viewBox="0 0 54 54" fill="none" xmlns="http://www.w3.org/2000/svg">
<path d="M54 27C54 41.9117 41.9117 54 27 54C12.0883 54 0 41.9117 0 27C0 12.0883 12.0883 0 27 0C41.9117 0 54 12.0883 54 27Z" fill="#16181D"/>
<path fill-rule="evenodd" clip-rule="evenodd" d="M27 52C40.8071 52 52 40.8071 52 27C52 13.1929 40.8071 2 27 2C13.1929 2 2 13.1929 2 27C2 40.8071 13.1929 52 27 52ZM27 54C41.9117 54 54 41.9117 54 27C54 12.0883 41.9117 0 27 0C12.0883 0 0 12.0883 0 27C0 41.9117 12.0883 54 27 54Z" fill="#7E8BAA"/>
<path d="M35.6216 39V37.188H31.6376V36.192L35.3936 30.6H36.8936V36.036H37.9856V37.188H36.8936V39H35.6216ZM33.0536 36.036H35.6936V32.028L33.0536 36.036Z" fill="#8CAE70"/>
<path d="M25.4384 35.34V34.26H29.5664V35.34H25.4384Z" fill="#8CAE70"/>
<path d="M20.3669 39.1439C19.8149 39.1439 19.3149 39.0399 18.8669 38.8319C18.4189 38.6239 18.0629 38.3199 17.7989 37.9199C17.5349 37.5119 17.3909 37.0199 17.3669 36.4439H18.6389C18.6629 36.8839 18.8229 37.2479 19.1189 37.5359C19.4229 37.8239 19.8389 37.9679 20.3669 37.9679C20.8869 37.9679 21.2949 37.8399 21.5909 37.5839C21.8869 37.3279 22.0349 36.9759 22.0349 36.5279C22.0349 36.0319 21.8549 35.6679 21.4949 35.4359C21.1349 35.2039 20.6949 35.0879 20.1749 35.0879H19.4309V33.9599H20.0669C20.5389 33.9599 20.9269 33.8639 21.2309 33.6719C21.5349 33.4799 21.6869 33.1799 21.6869 32.7719C21.6869 32.4199 21.5709 32.1439 21.3389 31.9439C21.1069 31.7359 20.7789 31.6319 20.3549 31.6319C19.9229 31.6319 19.5789 31.7479 19.3229 31.9799C19.0669 32.2119 18.9229 32.5079 18.8909 32.8679H17.6309C17.6549 32.3879 17.7829 31.9679 18.0149 31.6079C18.2469 31.2479 18.5629 30.9679 18.9629 30.7679C19.3629 30.5599 19.8269 30.4559 20.3549 30.4559C20.9309 30.4559 21.4109 30.5559 21.7949 30.7559C22.1789 30.9479 22.4669 31.2079 22.6589 31.5359C22.8509 31.8639 22.9469 32.2319 22.9469 32.6399C22.9469 33.0559 22.8229 33.4159 22.5749 33.7199C22.3349 34.0159 22.0429 34.2319 21.6989 34.3679V34.4399C22.1629 34.5679 22.5429 34.8079 22.8389 35.1599C23.1429 35.5039 23.2949 35.9679 23.2949 36.5519C23.2949 37.0239 23.1789 37.4599 22.9469 37.8599C22.7229 38.2519 22.3909 38.5639 21.9509 38.7959C21.5189 39.0279 20.9909 39.1439 20.3669 39.1439Z" fill="#8CAE70"/>
<path d="M35.6073 23V14.6H36.8793V18.44L39.8553 14.6H41.4273L38.1393 18.764V18.836L41.4993 23H39.8913L36.8793 19.232V23H35.6073Z" fill="#8CAE70"/>
<path d="M28.46 23V14.6H33.824V15.74H29.732V18.188H33.464V19.316H29.732V21.86H33.824V23H28.46Z" fill="#8CAE70"/>
<path d="M21.2646 23V14.6H26.6286V15.74H22.5366V18.188H26.2686V19.316H22.5366V21.86H26.6286V23H21.2646Z" fill="#8CAE70"/>
<path d="M14.2733 23L13.1213 14.6H14.3573L15.0533 20.708L16.0853 14.6H17.3333L18.3653 20.708L19.0613 14.6H20.2973L19.1453 23H17.6693L16.7093 17.06L15.7493 23H14.2733Z" fill="#8CAE70"/>
</svg>
