<svg width="32" height="32" viewBox="0 0 32 32" fill="none" xmlns="http://www.w3.org/2000/svg">
<path d="M15.9999 6.66663L16.7066 5.95996C16.5191 5.77269 16.2649 5.66751 15.9999 5.66751C15.7349 5.66751 15.4808 5.77269 15.2933 5.95996L15.9999 6.66663ZM15.9999 17.3333L15.2933 18.04C15.4808 18.2272 15.7349 18.3324 15.9999 18.3324C16.2649 18.3324 16.5191 18.2272 16.7066 18.04L15.9999 17.3333ZM12.6266 8.62663C12.4499 8.81619 12.3538 9.06692 12.3584 9.32599C12.3629 9.58506 12.4679 9.83224 12.6511 10.0155C12.8343 10.1987 13.0815 10.3036 13.3406 10.3082C13.5996 10.3128 13.8504 10.2166 14.0399 10.04L12.6266 8.62663ZM17.9599 10.04C18.0515 10.1382 18.1619 10.217 18.2845 10.2717C18.4072 10.3263 18.5396 10.3557 18.6739 10.3581C18.8082 10.3605 18.9415 10.3358 19.066 10.2855C19.1906 10.2352 19.3037 10.1603 19.3986 10.0653C19.4936 9.97039 19.5685 9.85727 19.6187 9.73276C19.669 9.60824 19.6937 9.47487 19.6914 9.3406C19.689 9.20633 19.6596 9.07391 19.605 8.95124C19.5503 8.82858 19.4715 8.71818 19.3733 8.62663L17.9599 10.04ZM14.0399 13.96C13.9484 13.8617 13.838 13.7829 13.7153 13.7283C13.5926 13.6736 13.4602 13.6442 13.3259 13.6418C13.1917 13.6395 13.0583 13.6642 12.9338 13.7145C12.8093 13.7648 12.6962 13.8396 12.6012 13.9346C12.5062 14.0295 12.4314 14.1426 12.3811 14.2672C12.3308 14.3917 12.3061 14.5251 12.3085 14.6593C12.3108 14.7936 12.3402 14.926 12.3949 15.0487C12.4495 15.1713 12.5283 15.2817 12.6266 15.3733L14.0399 13.96ZM19.3733 15.3733C19.4715 15.2817 19.5503 15.1713 19.605 15.0487C19.6596 14.926 19.689 14.7936 19.6914 14.6593C19.6937 14.5251 19.669 14.3917 19.6187 14.2672C19.5685 14.1426 19.4936 14.0295 19.3986 13.9346C19.3037 13.8396 19.1906 13.7648 19.066 13.7145C18.9415 13.6642 18.8082 13.6395 18.6739 13.6418C18.5396 13.6442 18.4072 13.6736 18.2845 13.7283C18.1619 13.7829 18.0515 13.8617 17.9599 13.96L19.3733 15.3733ZM4.33325 13.3333V18.6666H6.33325V13.3333H4.33325ZM27.6666 18.6666V13.3333H25.6666V18.6666H27.6666ZM14.9999 6.66663V17.3333H16.9999V6.66663H14.9999ZM15.2933 5.95996L12.6266 8.62663L14.0399 10.04L16.7066 7.37329L15.2933 5.95996ZM15.2933 7.37329L17.9599 10.04L19.3733 8.62663L16.7066 5.95996L15.2933 7.37329ZM16.7066 16.6266L14.0399 13.96L12.6266 15.3733L15.2933 18.04L16.7066 16.6266ZM16.7066 18.04L19.3733 15.3733L17.9599 13.96L15.2933 16.6266L16.7066 18.04ZM27.6666 13.3333C27.6666 10.2391 26.4374 7.27164 24.2495 5.08371C22.0616 2.89579 19.0941 1.66663 15.9999 1.66663V3.66663C18.5637 3.66663 21.0224 4.68508 22.8353 6.49793C24.6481 8.31078 25.6666 10.7695 25.6666 13.3333H27.6666ZM15.9999 30.3333C17.532 30.3333 19.0491 30.0315 20.4646 29.4452C21.88 28.8589 23.1661 27.9996 24.2495 26.9162C25.3328 25.8329 26.1922 24.5467 26.7785 23.1313C27.3648 21.7158 27.6666 20.1987 27.6666 18.6666H25.6666C25.6666 21.2304 24.6481 23.6891 22.8353 25.502C21.0224 27.3148 18.5637 28.3333 15.9999 28.3333V30.3333ZM4.33325 18.6666C4.33325 21.7608 5.56242 24.7283 7.75034 26.9162C9.93826 29.1041 12.9057 30.3333 15.9999 30.3333V28.3333C13.4362 28.3333 10.9774 27.3148 9.16455 25.502C7.3517 23.6891 6.33325 21.2304 6.33325 18.6666H4.33325ZM6.33325 13.3333C6.33325 10.7695 7.3517 8.31078 9.16455 6.49793C10.9774 4.68508 13.4362 3.66663 15.9999 3.66663V1.66663C12.9057 1.66663 9.93826 2.89579 7.75034 5.08371C5.56242 7.27164 4.33325 10.2391 4.33325 13.3333H6.33325Z" fill="white"/>
</svg>
