<svg width="32" height="32" viewBox="0 0 32 32" fill="none" xmlns="http://www.w3.org/2000/svg">
<path fill-rule="evenodd" clip-rule="evenodd" d="M5.3335 6.66667C4.59712 6.66667 4.00016 7.26362 4.00016 8V24C4.00016 24.7364 4.59712 25.3333 5.3335 25.3333H26.6668C27.4032 25.3333 28.0002 24.7364 28.0002 24V8C28.0002 7.26362 27.4032 6.66667 26.6668 6.66667H5.3335ZM1.3335 8C1.3335 5.79086 3.12436 4 5.3335 4H26.6668C28.876 4 30.6668 5.79086 30.6668 8V24C30.6668 26.2091 28.876 28 26.6668 28H5.3335C3.12436 28 1.3335 26.2091 1.3335 24V8Z" fill="white"/>
<path fill-rule="evenodd" clip-rule="evenodd" d="M1.54165 8.61828C1.93659 7.99677 2.76059 7.81309 3.3821 8.20803L15.3378 15.8053C15.5366 15.9291 15.7661 15.9947 16.0003 15.9947C16.2345 15.9947 16.464 15.9291 16.6628 15.8053C16.6638 15.8047 16.6648 15.8041 16.6658 15.8035L28.6186 8.20803C29.2401 7.81309 30.0641 7.99677 30.459 8.61828C30.854 9.23979 30.6703 10.0638 30.0488 10.4587L18.0816 18.0633C17.4578 18.4541 16.7365 18.6614 16.0003 18.6614C15.2642 18.6614 14.5429 18.4541 13.9191 18.0633L13.9119 18.0588L1.9519 10.4587C1.33038 10.0638 1.14671 9.23979 1.54165 8.61828Z" fill="white"/>
</svg>
