<svg width="137" height="27" viewBox="0 0 137 27" fill="none" xmlns="http://www.w3.org/2000/svg">
<path d="M135.009 20.02C134.543 20.02 134.152 19.8711 133.836 19.5733C133.538 19.2568 133.389 18.8752 133.389 18.4285C133.389 17.9817 133.538 17.6094 133.836 17.3116C134.152 16.9951 134.543 16.8369 135.009 16.8369C135.455 16.8369 135.828 16.9951 136.126 17.3116C136.442 17.6094 136.6 17.9817 136.6 18.4285C136.6 18.8752 136.442 19.2568 136.126 19.5733C135.828 19.8711 135.455 20.02 135.009 20.02Z" fill="#8CAE70"/>
<path d="M121.086 19.8804V0.335083H132.981V2.26169H123.432V9.13048H131.557V11.0292H123.432V19.8804H121.086Z" fill="#8CAE70"/>
<path d="M96.458 19.8804V6.03111H99.6132L99.8924 8.37655C100.321 7.5575 100.935 6.90599 101.735 6.42201C102.554 5.93803 103.513 5.69604 104.611 5.69604C106.324 5.69604 107.655 6.23587 108.604 7.31551C109.553 8.39516 110.028 9.9774 110.028 12.0622V19.8804H106.454V12.3973C106.454 11.206 106.212 10.2938 105.728 9.66095C105.244 9.02806 104.49 8.71161 103.466 8.71161C102.461 8.71161 101.633 9.06529 100.981 9.77264C100.348 10.48 100.032 11.4666 100.032 12.7324V19.8804H96.458Z" fill="white"/>
<path d="M86.1703 20.2154C84.83 20.2154 83.6201 19.9083 82.5404 19.294C81.4794 18.6797 80.6324 17.8328 79.9995 16.7531C79.3853 15.6549 79.0781 14.3891 79.0781 12.9557C79.0781 11.5224 79.3946 10.2659 80.0275 9.18628C80.6604 8.08802 81.5073 7.23175 82.5684 6.61747C83.648 6.00319 84.858 5.69604 86.1982 5.69604C87.5198 5.69604 88.7112 6.00319 89.7722 6.61747C90.8519 7.23175 91.6988 8.08802 92.3131 9.18628C92.946 10.2659 93.2625 11.5224 93.2625 12.9557C93.2625 14.3891 92.946 15.6549 92.3131 16.7531C91.6988 17.8328 90.8519 18.6797 89.7722 19.294C88.6926 19.9083 87.4919 20.2154 86.1703 20.2154ZM86.1703 17.1161C87.101 17.1161 87.9108 16.7717 88.5995 16.083C89.2882 15.3756 89.6326 14.3332 89.6326 12.9557C89.6326 11.5783 89.2882 10.5451 88.5995 9.85641C87.9108 9.14905 87.1103 8.79537 86.1982 8.79537C85.2489 8.79537 84.4298 9.14905 83.7411 9.85641C83.071 10.5451 82.7359 11.5783 82.7359 12.9557C82.7359 14.3332 83.071 15.3756 83.7411 16.083C84.4298 16.7717 85.2396 17.1161 86.1703 17.1161Z" fill="white"/>
<path d="M70.5789 20.2154C69.3504 20.2154 68.2707 20.02 67.34 19.6291C66.4093 19.2195 65.6647 18.6611 65.1063 17.9538C64.5478 17.2464 64.2128 16.4274 64.1011 15.4966H67.703C67.8147 16.0365 68.1125 16.5018 68.5965 16.8927C69.0991 17.265 69.7413 17.4512 70.5231 17.4512C71.3049 17.4512 71.8727 17.2929 72.2263 16.9765C72.5986 16.66 72.7848 16.2971 72.7848 15.8875C72.7848 15.2919 72.5242 14.8917 72.003 14.6869C71.4818 14.4635 70.7558 14.2495 69.8251 14.0447C69.2294 13.9144 68.6244 13.7562 68.0101 13.57C67.3959 13.3839 66.8281 13.1512 66.3069 12.872C65.8043 12.5741 65.3948 12.2018 65.0783 11.7551C64.7619 11.2897 64.6037 10.722 64.6037 10.0519C64.6037 8.8233 65.0876 7.79019 66.0556 6.95253C67.0422 6.11487 68.4197 5.69604 70.188 5.69604C71.8261 5.69604 73.1291 6.07764 74.0971 6.84084C75.0837 7.60404 75.67 8.65577 75.8562 9.99602H72.4776C72.2729 8.97221 71.5004 8.46031 70.1601 8.46031C69.49 8.46031 68.9688 8.59061 68.5965 8.85122C68.2428 9.11182 68.066 9.43758 68.066 9.82848C68.066 10.238 68.3359 10.5638 68.8757 10.8058C69.4155 11.0477 70.1322 11.2711 71.0257 11.4759C71.9937 11.6993 72.8779 11.9505 73.6783 12.2298C74.4973 12.4904 75.1488 12.8906 75.6328 13.4304C76.1168 13.9516 76.3588 14.7055 76.3588 15.6921C76.3774 16.5484 76.154 17.3209 75.6887 18.0096C75.2233 18.6983 74.5532 19.2382 73.6783 19.6291C72.8034 20.02 71.7703 20.2154 70.5789 20.2154Z" fill="white"/>
<path d="M50.6074 26.0232L53.8184 18.959H52.9807L47.5918 6.03113H51.4729L55.3541 15.7759L59.4028 6.03113H63.2001L54.4047 26.0232H50.6074Z" fill="white"/>
<path d="M37.9994 20.2154C36.808 20.2154 35.8308 20.0293 35.0676 19.657C34.3044 19.2661 33.7366 18.7542 33.3643 18.1213C32.9921 17.4884 32.8059 16.7903 32.8059 16.0271C32.8059 14.7427 33.3085 13.7003 34.3137 12.8999C35.3189 12.0995 36.8267 11.6993 38.837 11.6993H42.3552V11.3642C42.3552 10.4148 42.0853 9.7168 41.5455 9.27005C41.0056 8.8233 40.3355 8.59992 39.5351 8.59992C38.8091 8.59992 38.1762 8.77676 37.6364 9.13044C37.0966 9.4655 36.7615 9.96809 36.6312 10.6382H33.141C33.234 9.63303 33.5691 8.75815 34.1462 8.01356C34.7418 7.26898 35.505 6.70123 36.4358 6.31033C37.3665 5.9008 38.4089 5.69604 39.563 5.69604C41.5362 5.69604 43.0905 6.18933 44.226 7.17591C45.3615 8.16248 45.9292 9.55857 45.9292 11.3642V19.8804H42.8857L42.5506 17.6466C42.1411 18.3912 41.5641 19.0055 40.8195 19.4895C40.0935 19.9734 39.1535 20.2154 37.9994 20.2154ZM38.8091 17.4232C39.8329 17.4232 40.624 17.0882 41.1825 16.4181C41.7595 15.7479 42.1225 14.9196 42.2714 13.933H39.2279C38.2786 13.933 37.5992 14.1098 37.1896 14.4635C36.7801 14.7986 36.5754 15.2174 36.5754 15.72C36.5754 16.2598 36.7801 16.6787 37.1896 16.9765C37.5992 17.2743 38.139 17.4232 38.8091 17.4232Z" fill="white"/>
<path d="M22.1541 19.8804V6.03111H25.3371L25.6722 8.62784C26.1748 7.73434 26.8542 7.02699 27.7105 6.50578C28.5854 5.96596 29.6092 5.69604 30.7819 5.69604V9.4655H29.7767C28.9949 9.4655 28.2969 9.58649 27.6826 9.82848C27.0683 10.0705 26.5843 10.4893 26.2306 11.085C25.8956 11.6806 25.7281 12.509 25.7281 13.57V19.8804H22.1541Z" fill="white"/>
<path d="M9.1863 20.2155C7.34346 20.2155 5.73329 19.7966 4.35581 18.959C2.97833 18.1213 1.908 16.9579 1.1448 15.4687C0.381599 13.9609 0 12.2112 0 10.2194C0 8.20904 0.390906 6.44065 1.17272 4.91425C1.97315 3.36924 3.09933 2.1686 4.55127 1.31233C6.02182 0.437443 7.76229 0 9.77266 0C12.0623 0 13.9609 0.54913 15.4687 1.64739C16.9765 2.74565 17.9538 4.26274 18.4005 6.19866H14.4077C14.1099 5.28654 13.57 4.57919 12.7882 4.0766C12.0064 3.55539 11.0012 3.29478 9.77266 3.29478C7.81813 3.29478 6.31035 3.91837 5.24932 5.16555C4.18828 6.39411 3.65777 8.08804 3.65777 10.2473C3.65777 12.4066 4.17898 14.0819 5.22139 15.2733C6.28243 16.446 7.71575 17.0324 9.52137 17.0324C11.2898 17.0324 12.6207 16.5577 13.5142 15.6083C14.4263 14.6404 14.9754 13.3746 15.1616 11.811H10.2194V9.13046H18.7635V19.8804H15.4687L15.1895 17.3116C14.5566 18.2423 13.7655 18.959 12.8161 19.4616C11.8668 19.9642 10.6569 20.2155 9.1863 20.2155Z" fill="white"/>
</svg>
